<svg width="250" height="1450" viewBox="0 0 250 1450" fill="none" xmlns="http://www.w3.org/2000/svg">
<path d="M212.783 677.129L211.599 0.0306396L158.828 0.123291L158.671 352.6L158.591 352.538L39.5117 461.757L38.0118 541.883V541.914L36.1569 774.234L94.611 773.955L212.744 677.129H212.783ZM57.4705 467.087L158.631 374.289V433.717L56.3653 525.399L57.4705 467.087ZM55.9707 547.274L176.668 439.046L176.866 14.2523H193.522L194.667 671.397L86.8356 759.764L54.3128 759.919L55.9707 547.274Z" fill="#161616"/>
<path d="M165.577 653.241C165.577 649.322 161.53 646.145 156.538 646.145C151.546 646.145 147.5 649.322 147.5 653.241C147.5 657.159 151.546 660.336 156.538 660.336C161.53 660.336 165.577 657.159 165.577 653.241Z" fill="#161616"/>
<path d="M165.577 604.998C165.577 601.094 161.551 597.902 156.538 597.902C151.526 597.902 147.5 601.063 147.5 604.998C147.5 608.933 151.526 612.093 156.538 612.093C161.551 612.093 165.577 608.933 165.577 604.998Z" fill="#161616"/>
<path d="M165.457 556.756C165.457 552.852 161.431 549.66 156.419 549.66C151.406 549.66 147.38 552.821 147.38 556.756C147.38 560.691 151.406 563.851 156.419 563.851C161.431 563.851 165.457 560.691 165.457 556.756Z" fill="#161616"/>
<path d="M165.735 508.358C165.735 504.454 161.709 501.262 156.697 501.262C151.684 501.262 147.658 504.423 147.658 508.358C147.658 512.293 151.684 515.453 156.697 515.453C161.709 515.453 165.735 512.293 165.735 508.358Z" fill="#161616"/>
<path d="M123.027 1207.11L0 1110.69L0.0790162 1352.77L124.763 1450H250L247.869 1014.61V675.301L123.106 772.654L123.027 1207.11Z" fill="#161616"/>
<path d="M105.662 1103.88L0.00219727 1020.93V1089.41L105.662 1172.35V1103.88Z" fill="#161616"/>
<path d="M105.662 1028.77L0.00219727 945.824V1013.09L105.662 1096.04V1028.77Z" fill="#161616"/>
<path d="M105.662 953.633L0.00219727 870.688V937.986L105.662 1020.93V953.633Z" fill="#161616"/>
<path d="M105.662 878.526L0.00219727 795.581V862.848L105.662 945.824V878.526Z" fill="#161616"/>
<path d="M0.356323 546.903V773.955H18.4337V546.903H0.356323Z" fill="#161616"/>
<path d="M229.793 0.000427246V629.104H247.871V0.000427246H229.793Z" fill="#161616"/>
</svg>
