<svg width="1321" height="822" viewBox="0 0 1321 822" fill="none" xmlns="http://www.w3.org/2000/svg">
<path d="M1262.03 492.82C1266.49 492.82 1270.1 499.528 1270.1 507.815C1270.1 516.102 1266.49 522.81 1262.03 522.81C1257.56 522.81 1253.95 516.102 1253.95 507.815C1253.95 499.528 1257.56 492.82 1262.03 492.82Z" fill="white"/>
<path d="M1262.03 599.328C1266.49 599.328 1270.1 606.035 1270.1 614.323C1270.1 622.61 1266.49 629.317 1262.03 629.317C1257.56 629.317 1253.95 622.61 1253.95 614.323C1253.95 606.035 1257.56 599.328 1262.03 599.328Z" fill="white"/>
<path d="M1262.03 699.831C1266.49 699.831 1270.1 706.538 1270.1 714.826C1270.1 723.113 1266.49 729.82 1262.03 729.82C1257.56 729.82 1253.95 723.113 1253.95 714.826C1253.95 706.538 1257.56 699.831 1262.03 699.831Z" fill="white"/>
<path d="M1321 822L0 822L0 0L1321 0L1321 822ZM16.1531 792.011L1304.85 792.011L1304.85 30.0245L16.1531 30.0245L16.1531 792.011Z" fill="white"/>
<path d="M123.155 612.006L66.2972 717.565H54.6458V702.044L103.143 612.006H123.155Z" fill="white"/>
<path d="M83.3393 612.006L54.6458 665.277L54.6458 628.124L63.3276 612.006H83.3393Z" fill="white"/>
<path d="M163.103 612.006L106.246 717.565H86.2341L143.111 612.006H163.103Z" fill="white"/>
<path d="M202.805 612.006L145.928 717.565H125.917L182.793 612.006H202.805Z" fill="white"/>
<path d="M242.752 612.006L185.895 717.565H165.883L222.741 612.006H242.752Z" fill="white"/>
<path d="M282.852 612.006L225.994 717.565H205.982L262.84 612.006H282.852Z" fill="white"/>
<path d="M322.799 612.006L265.941 717.565H245.93L302.787 612.006H322.799Z" fill="white"/>
<path d="M362.482 612.006L305.625 717.565H285.613L342.471 612.006H362.482Z" fill="white"/>
<path d="M393.786 612.006V628.089L345.592 717.565H325.561L382.437 612.006H393.786Z" fill="white"/>
<path d="M393.785 664.855V702.008L385.406 717.565H365.395L393.785 664.855Z" fill="white"/>
<path d="M1266.05 411.772H1257.98V116.269L1099.62 116.269V101.274L1266.05 101.274V411.772Z" fill="white"/>
<path d="M551.855 101.274L54.5693 101.274V116.269L551.855 116.269V101.274Z" fill="white"/>
<path d="M70.3257 439.515H43.3345L43.3345 489.626H70.3257V439.515Z" fill="white"/>
<path d="M70.3257 329.566H43.3345L43.3345 379.677H70.3257V329.566Z" fill="white"/>
</svg>
