<svg width="242" height="1450" viewBox="0 0 242 1450" fill="none" xmlns="http://www.w3.org/2000/svg">
<path d="M178.209 900.462V933.926H220.79V900.462H178.209Z" fill="#161616"/>
<path d="M178.209 967.391V1000.85H220.79V967.391H178.209Z" fill="#161616"/>
<path d="M33.713 971.667L-8 938.884V983.193L33.713 1015.94V971.667Z" fill="#161616"/>
<path d="M33.713 1035.19L-8 1002.4V1046.68L33.713 1079.46V1035.19Z" fill="#161616"/>
<path d="M33.713 1100.53L-8 1067.75V1112.06L33.713 1144.81V1100.53Z" fill="#161616"/>
<path d="M-8 1131.98V1176.26L33.713 1209.04V1164.77L-8 1131.98Z" fill="#161616"/>
<path d="M10.4909 911.4L11.9106 634.826L98.7663 587.263L98.2532 433.39L80.1958 433.421L80.6694 579.889L-6.14678 627.42L-7.60504 917.07L53.7016 967.483L53.4658 1209.04H71.5223L71.7591 961.782L10.4909 911.4Z" fill="#161616"/>
<path d="M161.275 1352.99L162.158 1450L180.215 1449.9L179.332 1352.89L161.275 1352.99Z" fill="#161616"/>
<path d="M200.328 477.174L242.001 509.956V465.678L200.328 432.896V477.174Z" fill="#161616"/>
<path d="M200.328 413.685L242.001 446.436V402.159L200.328 369.376V413.685Z" fill="#161616"/>
<path d="M200.328 348.305L242.001 381.087V336.809L200.328 304.027V348.305Z" fill="#161616"/>
<path d="M242.001 316.855V272.577L200.328 239.795V284.103L242.001 316.855Z" fill="#161616"/>
<path d="M115.876 154.183L57.0926 202.458L57.0531 347.5L114.418 396.302L114.497 771.874H84.454V822.566H102.669L100.934 1449.43H118.163L119.386 1353.9L178.209 1305.66V1160.61L120.884 1111.78L120.805 822.566H148.955V771.874H132.554L134.367 0H117.138L115.876 154.183Z" fill="#161616"/>
<path d="M223.509 537.44L222.878 675.913H222.326L222.089 813.952L133.224 861.546L135.746 1103.01L153.804 1102.89L151.359 869.013L240.146 821.482L240.383 676.997H240.895L241.606 531.77L180.298 481.388L180.535 239.827L162.477 239.796L162.241 487.058L223.509 537.44Z" fill="#161616"/>
</svg>
