<svg width="247" height="1425" viewBox="0 0 247 1425" fill="none" xmlns="http://www.w3.org/2000/svg">
<path d="M121.422 407.065L103.653 416.931L103.497 284.714H85.6501L85.8061 426.857L69.05 436.176L0 474.239L0 618.209L166.507 683.465L167.755 950.213L185.601 950.152L184.315 674.848L17.8473 609.622V481.456L60.6334 457.887L60.7114 523.295L183.536 473.995L184.237 237.424L145.621 236.632L144.335 6.10352e-05H122.318L121.422 407.065Z" fill="#161616"/>
<path d="M101.861 1030.85L17.8473 976.583L18.0029 664.646H0.156022L0 983.161L84.0528 1037.42L84.91 1227.89L102.757 1227.86L101.861 1030.85Z" fill="#161616"/>
<path d="M201.851 482.978L60.789 540.621L60.4774 570.859L78.3243 570.951L78.5583 549.117L219.737 491.413L219.503 237.576H201.656L201.851 482.978Z" fill="#161616"/>
<path d="M152.907 1057.28V1106.24H215.566V1057.28H152.907Z" fill="#161616"/>
<path d="M152.907 1118.51V1167.48H215.566V1118.51H152.907Z" fill="#161616"/>
<path d="M152.907 1179.78V1228.74H215.566V1179.78H152.907Z" fill="#161616"/>
<path d="M183.535 593.696C183.535 604.719 192.887 614.007 205.707 617.052L205.863 976.583L121.85 1030.85L120.993 1377.19C108.095 1380.18 98.6647 1389.52 98.6647 1400.58C98.6647 1414.07 112.654 1425 129.916 1425C147.179 1425 161.168 1414.07 161.168 1400.58C161.168 1389.52 151.777 1380.21 138.879 1377.19L139.736 1037.39L223.789 983.13L223.633 617.082C236.609 614.129 246.078 604.78 246.078 593.666C246.078 580.176 232.089 569.244 214.826 569.244C197.563 569.244 183.574 580.176 183.574 593.666L183.535 593.696Z" fill="#161616"/>
</svg>
